<svg id="noun-email-6890562" xmlns="http://www.w3.org/2000/svg" width="43.066" height="44.044" viewBox="0 0 43.066 44.044">
  <path id="Path_2544" data-name="Path 2544" d="M9.3,13.939,5.8,16.177a3.78,3.78,0,0,0-.808.692L9.3,20.412ZM23.622,16.7a1.888,1.888,0,1,0-1.334-.553A1.883,1.883,0,0,0,23.622,16.7Zm2.793.906a3.949,3.949,0,1,1-.6-6.078,1.033,1.033,0,0,1,1.756.737v2.549a1.254,1.254,0,0,0,.369.883l0,0a1.259,1.259,0,0,0,.885.365,1.259,1.259,0,0,0,1.252-1.252,6.447,6.447,0,1,0-.906,3.3,3.236,3.236,0,0,1-.346.018,3.3,3.3,0,0,1-2.154-.8c-.081.1-.165.191-.255.281Zm3.229,3.229a8.515,8.515,0,1,1,2.5-6.023,8.492,8.492,0,0,1-2.5,6.023ZM11.363,22.108l8.392,6.9.295-.242a5.575,5.575,0,0,1,7.142,0l.295.242,8.392-6.9V6.385a3.327,3.327,0,0,0-3.32-3.32H14.681a3.327,3.327,0,0,0-3.32,3.32V22.108Zm26.582-1.7,4.31-3.543a3.781,3.781,0,0,0-.808-.692l-3.5-2.238Zm0-8.913,4.607,2.944a5.62,5.62,0,0,1,1.922,2.031c.021.039.04.077.061.114l0,0,.012.023a5.6,5.6,0,0,1,.606,2.568V39.413a5.64,5.64,0,0,1-5.63,5.63H7.72a5.64,5.64,0,0,1-5.63-5.63V19.181A5.609,5.609,0,0,1,2.7,16.613l.012-.023,0,0c.021-.039.04-.077.061-.114a5.592,5.592,0,0,1,1.922-2.031L9.3,11.5V6.384A5.395,5.395,0,0,1,14.684,1H32.562a5.395,5.395,0,0,1,5.384,5.384V11.5ZM9.748,23.44a1.06,1.06,0,0,1-.137-.112L4.169,18.853c-.009.107-.014.218-.014.328V39.413a3.544,3.544,0,0,0,.578,1.942l13.4-11.017-8.388-6.9Zm27.885-.112a.933.933,0,0,1-.137.112l-8.388,6.9,13.4,11.017a3.54,3.54,0,0,0,.578-1.942V19.179c0-.111-.005-.219-.014-.328l-5.442,4.475Zm-17.21,7.792-.03.025L6.338,42.7a3.548,3.548,0,0,0,1.38.279H39.523A3.535,3.535,0,0,0,40.9,42.7L26.849,31.144l-.03-.025-.932-.767a3.549,3.549,0,0,0-4.533,0Z" transform="translate(-2.09 -1)" fill="#0f429e"/>
</svg>
