<svg xmlns="http://www.w3.org/2000/svg" width="35.436" height="47.489" viewBox="0 0 35.436 47.489">
  <g id="noun-location-7854217" transform="translate(0.499 0.5)">
    <path id="Path_2545" data-name="Path 2545" d="M42.97,40.686a8.626,8.626,0,1,0-8.626-8.626,8.636,8.636,0,0,0,8.626,8.626Zm0-15.529a6.9,6.9,0,1,1-6.9,6.9,6.912,6.912,0,0,1,6.9-6.9Z" transform="translate(-25.751 -14.827)" fill="#0f429e" stroke="#0f429f" stroke-width="1"/>
    <path id="Path_2546" data-name="Path 2546" d="M18.75,48.274c0,3.915,8.872,6.027,17.218,6.027s17.218-2.111,17.218-6.027c0-2.38-3.33-4.326-8.992-5.335,4.242-4.205,8.628-10.447,8.628-18.272A17.08,17.08,0,0,0,35.968,7.812,17.08,17.08,0,0,0,19.114,24.667c0,7.825,4.386,14.065,8.628,18.272C22.08,43.948,18.75,45.9,18.75,48.274ZM35.968,9.535A15.336,15.336,0,0,1,51.1,24.667c0,12.52-12.632,21.038-15.132,22.6-2.5-1.562-15.132-10.081-15.132-22.6A15.336,15.336,0,0,1,35.968,9.535ZM29.324,44.429a39.622,39.622,0,0,0,6.218,4.595.858.858,0,0,0,.426.112.888.888,0,0,0,.426-.112,39.782,39.782,0,0,0,6.218-4.595c5.749.829,8.852,2.583,8.852,3.846,0,1.8-5.895,4.3-15.5,4.3s-15.5-2.507-15.5-4.3c0-1.266,3.1-3.017,8.852-3.846Z" transform="translate(-18.749 -7.812)" fill="#0f429e" stroke="#0f429f" stroke-width="1"/>
  </g>
</svg>
