<svg xmlns="http://www.w3.org/2000/svg" width="44.818" height="44.743" viewBox="0 0 44.818 44.743">
  <g id="noun-phone-5079154" transform="translate(0.555 0.5)">
    <g id="Group_2634" data-name="Group 2634" transform="translate(0 0)">
      <path id="Path_2547" data-name="Path 2547" d="M8.91,1.016,3.083,6.848C.408,9.523.211,13.926,1.8,18.731a39.8,39.8,0,0,0,9.8,14.952,39.765,39.765,0,0,0,14.946,9.792c4.8,1.587,9.213,1.4,11.888-1.279l5.833-5.833a.753.753,0,0,0,0-1.062l-9.319-9.319a.753.753,0,0,0-1.062,0l-5.61,5.61a1.965,1.965,0,0,1-1.423.506,6.677,6.677,0,0,1-2.458-.523,19.242,19.242,0,0,1-6.233-4.326,19.211,19.211,0,0,1-4.32-6.233,6.676,6.676,0,0,1-.523-2.458,1.964,1.964,0,0,1,.506-1.423l5.6-5.61a.753.753,0,0,0,0-1.062L9.978,1.016a.753.753,0,0,0-1.068,0Zm.534,1.6L17.824,11l-5.071,5.071a3.512,3.512,0,0,0-.945,2.458,8.014,8.014,0,0,0,.623,3.036A20.536,20.536,0,0,0,17.1,28.317a20.5,20.5,0,0,0,6.75,4.66,8.016,8.016,0,0,0,3.036.623,3.513,3.513,0,0,0,2.458-.945l5.077-5.071,8.246,8.252-5.293,5.294c-2.107,2.107-5.842,2.408-10.353.917a38.461,38.461,0,0,1-14.357-9.43A38.441,38.441,0,0,1,3.233,18.258c-1.49-4.511-1.2-8.241.912-10.348Z" transform="translate(-0.794 -0.794)" fill="#0f429e" stroke="#0f429f" stroke-width="1" fill-rule="evenodd"/>
    </g>
  </g>
</svg>
